<svg xmlns="http://www.w3.org/2000/svg" fill="none" viewBox="-0.5 -0.5 14 14" height="14" width="14"><g id="logout-1--arrow-exit-frame-leave-logout-rectangle-right"><path id="Vector" stroke="#ffffff" stroke-linecap="round" stroke-linejoin="round" d="M8.821428571428571 9.75v1.8571428571428572c0 0.24625714285714287 -0.09783428571428571 0.48248571428571424 -0.2719692857142857 0.6565928571428571 -0.17414428571428572 0.17410714285714285 -0.4103264285714286 0.27197857142857146 -0.6566021428571429 0.27197857142857146h-6.5c-0.2462757142857143 0 -0.48245785714285716 -0.09787142857142857 -0.6565993571428572 -0.27197857142857146C0.5621172142857144 12.089628571428573 0.4642857142857143 11.8534 0.4642857142857143 11.607142857142858v-10.214285714285715c0 -0.2462757142857143 0.09783150000000002 -0.48245785714285716 0.27197207142857144 -0.6565993571428572C0.9103992857142857 0.5621172142857144 1.1465814285714286 0.4642857142857143 1.3928571428571428 0.4642857142857143h6.5c0.2462757142857143 0 0.48245785714285716 0.09783150000000002 0.6566021428571429 0.27197207142857144C8.723594285714286 0.9103992857142857 8.821428571428571 1.1465814285714286 8.821428571428571 1.3928571428571428v1.8571428571428572" stroke-width="1"></path><path id="Vector_2" stroke="#ffffff" stroke-linecap="round" stroke-linejoin="round" d="M6.035714285714286 6.5h6.5" stroke-width="1"></path><path id="Vector_3" stroke="#ffffff" stroke-linecap="round" stroke-linejoin="round" d="m10.678571428571429 4.642857142857143 1.8571428571428572 1.8571428571428572 -1.8571428571428572 1.8571428571428572" stroke-width="1"></path></g></svg>