<svg xmlns="http://www.w3.org/2000/svg" fill="none" viewBox="-0.5 -0.5 14 14" height="14" width="14"><g id="user-circle-single--circle-geometric-human-person-single-user"><path id="Vector" stroke="#000" stroke-linecap="round" stroke-linejoin="round" d="M6.5 7.428571428571429c1.2820878571428573 0 2.3214285714285716 -1.0393407142857143 2.3214285714285716 -2.3214285714285716S7.782087857142858 2.7857142857142856 6.5 2.7857142857142856 4.178571428571429 3.8250550000000003 4.178571428571429 5.107142857142858 5.217912142857143 7.428571428571429 6.5 7.428571428571429Z" stroke-width="1"></path><path id="Vector_2" stroke="#000" stroke-linecap="round" stroke-linejoin="round" d="M2.5349814285714287 11.05c0.41436571428571434 -0.6801785714285715 0.9967378571428571 -1.2423357142857143 1.6911235714285715 -1.6323357142857144 0.6943857142857143 -0.39011142857142855 1.4774314285714287 -0.5949914285714286 2.2738764285714286 -0.5949914285714286 0.796445 0 1.5794907142857144 0.20488 2.2738764285714286 0.5949914285714286 0.6944135714285714 0.39 1.2767207142857142 0.9521571428571429 1.691142142857143 1.6323357142857144" stroke-width="1"></path><path id="Vector_3" stroke="#000" stroke-linecap="round" stroke-linejoin="round" d="M6.5 12.535714285714286c3.3334785714285715 0 6.035714285714286 -2.702235714285714 6.035714285714286 -6.035714285714286C12.535714285714286 3.1665678571428573 9.833478571428572 0.4642857142857143 6.5 0.4642857142857143 3.1665678571428573 0.4642857142857143 0.4642857142857143 3.1665678571428573 0.4642857142857143 6.5c0 3.3334785714285715 2.702282142857143 6.035714285714286 6.035714285714286 6.035714285714286Z" stroke-width="1"></path></g></svg>